<svg width="36" height="36" viewBox="0 0 36 36" fill="none" xmlns="http://www.w3.org/2000/svg">
<rect width="36" height="36" rx="18" fill="#3B464F"/>
<path d="M17.9999 6.49316C14.8748 6.49316 14.4826 6.50683 13.2552 6.56268C12.0301 6.61878 11.194 6.81272 10.4623 7.09727C9.70551 7.39118 9.06351 7.78433 8.42392 8.42416C7.78384 9.06374 7.39069 9.70573 7.09582 10.4623C6.81055 11.1942 6.61637 12.0306 6.56123 13.2551C6.50657 14.4825 6.49219 14.8749 6.49219 18C6.49219 21.1251 6.50609 21.5161 6.56171 22.7435C6.61805 23.9685 6.81199 24.8046 7.0963 25.5363C7.39045 26.2931 7.7836 26.9351 8.42344 27.5746C9.06279 28.2147 9.70479 28.6088 10.4611 28.9027C11.1933 29.1873 12.0297 29.3812 13.2544 29.4373C14.4819 29.4932 14.8738 29.5068 17.9987 29.5068C21.124 29.5068 21.515 29.4932 22.7424 29.4373C23.9674 29.3812 24.8046 29.1873 25.5367 28.9027C26.2933 28.6088 26.9343 28.2147 27.5737 27.5746C28.2137 26.9351 28.6069 26.2931 28.9017 25.5365C29.1846 24.8046 29.3788 23.9682 29.4363 22.7437C29.4915 21.5163 29.5059 21.1251 29.5059 18C29.5059 14.8749 29.4915 14.4827 29.4363 13.2553C29.3788 12.0303 29.1846 11.1942 28.9017 10.4625C28.6069 9.70573 28.2137 9.06374 27.5737 8.42416C26.9336 7.78409 26.2935 7.39094 25.536 7.09727C24.8024 6.81272 23.9657 6.61878 22.7407 6.56268C21.5133 6.50683 21.1226 6.49316 17.9965 6.49316H17.9999ZM16.9676 8.56679C17.274 8.56631 17.6158 8.56679 17.9999 8.56679C21.0722 8.56679 21.4364 8.57782 22.6496 8.63296C23.7716 8.68426 24.3805 8.87172 24.7861 9.02922C25.3231 9.23778 25.7059 9.4871 26.1084 9.88984C26.5112 10.2926 26.7605 10.6761 26.9695 11.2131C27.127 11.6183 27.3147 12.2272 27.3658 13.3491C27.4209 14.5621 27.4329 14.9265 27.4329 17.9974C27.4329 21.0683 27.4209 21.4326 27.3658 22.6456C27.3145 23.7676 27.127 24.3765 26.9695 24.7816C26.761 25.3186 26.5112 25.701 26.1084 26.1035C25.7057 26.5062 25.3233 26.7555 24.7861 26.9641C24.381 27.1223 23.7716 27.3093 22.6496 27.3606C21.4366 27.4157 21.0722 27.4277 17.9999 27.4277C14.9273 27.4277 14.5631 27.4157 13.3501 27.3606C12.2282 27.3088 11.6193 27.1213 11.2134 26.9638C10.6764 26.7553 10.2928 26.5059 9.8901 26.1032C9.48735 25.7005 9.23804 25.3179 9.02899 24.7806C8.87149 24.3755 8.68378 23.7666 8.63272 22.6447C8.57758 21.4317 8.56656 21.0673 8.56656 17.9945C8.56656 14.9217 8.57758 14.5592 8.63272 13.3462C8.68402 12.2243 8.87149 11.6154 9.02899 11.2098C9.23756 10.6728 9.48735 10.2892 9.8901 9.88648C10.2928 9.48374 10.6764 9.23443 11.2134 9.02539C11.619 8.86717 12.2282 8.68018 13.3501 8.62864C14.4116 8.5807 14.823 8.56631 16.9676 8.56392V8.56679Z" fill="white"/>
<path d="M24.1174 10.4491C23.8443 10.4491 23.5773 10.5301 23.3502 10.6819C23.1231 10.8336 22.9462 11.0493 22.8417 11.3017C22.7372 11.554 22.7098 11.8317 22.7632 12.0995C22.8165 12.3674 22.948 12.6134 23.1412 12.8065C23.3344 12.9996 23.5805 13.1311 23.8483 13.1843C24.1162 13.2375 24.3939 13.2101 24.6462 13.1055C24.8985 13.001 25.1141 12.8239 25.2658 12.5968C25.4175 12.3696 25.4984 12.1026 25.4983 11.8295C25.4983 11.0672 24.8798 10.4491 24.1174 10.4491Z" fill="white"/>
<path fill-rule="evenodd" clip-rule="evenodd" d="M17.9751 12.0625C14.7117 12.0625 12.0658 14.7083 12.0658 17.9717C12.0658 21.2351 14.7117 23.8798 17.9751 23.8798C21.2385 23.8798 23.8837 21.2351 23.8837 17.9717C23.8837 14.7083 21.2385 12.0625 17.9751 12.0625ZM17.999 21.7757C20.0843 21.7757 21.7747 20.0853 21.7747 18C21.7747 15.9148 20.0843 14.2243 17.999 14.2243C15.9138 14.2243 14.2233 15.9148 14.2233 18C14.2233 20.0853 15.9138 21.7757 17.999 21.7757Z" fill="white"/>
</svg>
