<svg width="36" height="36" viewBox="0 0 36 36" fill="none" xmlns="http://www.w3.org/2000/svg">
<rect width="36" height="36" rx="18" fill="#3B464F"/>
<path fill-rule="evenodd" clip-rule="evenodd" d="M7.76172 10.3363C7.76172 11.7279 8.81506 12.7448 10.1144 12.7448C11.4139 12.7448 12.4673 11.7279 12.4673 10.3363C12.4673 8.94487 11.4139 7.92676 10.1144 7.92676C8.81506 7.92676 7.76172 8.94487 7.76172 10.3363ZM23.1187 27.9314H27.1996V19.6875C27.1996 15.616 24.7389 14.2273 22.4618 14.2273C20.3562 14.2273 18.9259 15.6282 18.531 16.4488V14.6019H14.6064V27.9314H18.6872V20.7046C18.6872 18.7777 19.8742 17.8406 21.0852 17.8406C22.2305 17.8406 23.1187 18.5031 23.1187 20.6511V27.9314ZM12.1547 14.5917V27.9211H8.07407V14.5917H12.1547Z" fill="white"/>
</svg>
