<svg width="36" height="36" viewBox="0 0 36 36" fill="none" xmlns="http://www.w3.org/2000/svg">
<rect width="36" height="36" rx="18" fill="#3B464F"/>
<path d="M25.9383 13.8619C25.9504 14.0377 25.9504 14.2134 25.9504 14.3908C25.9504 19.7955 21.836 26.0286 14.3126 26.0286V26.0254C12.0902 26.0286 9.9139 25.392 8.04297 24.1917C8.36613 24.2306 8.69091 24.25 9.0165 24.2509C10.8583 24.2525 12.6474 23.6345 14.0964 22.4966C12.3461 22.4633 10.8113 21.3222 10.2751 19.6561C10.8882 19.7744 11.52 19.7501 12.1218 19.5857C10.2136 19.2002 8.84075 17.5236 8.84075 15.5765C8.84075 15.5587 8.84075 15.5417 8.84075 15.5247C9.40931 15.8414 10.0459 16.0171 10.6971 16.0366C8.89987 14.8355 8.34588 12.4446 9.43118 10.5753C11.5078 13.1306 14.5718 14.684 17.8609 14.8484C17.5312 13.4278 17.9816 11.9392 19.0442 10.9405C20.6916 9.39195 23.2825 9.47133 24.8311 11.1179C25.7471 10.9373 26.6251 10.6012 27.4285 10.1249C27.1232 11.0717 26.4842 11.876 25.6305 12.3871C26.4412 12.2915 27.2334 12.0744 27.9793 11.7432C27.4302 12.5661 26.7385 13.2828 25.9383 13.8619Z" fill="white"/>
</svg>
