<svg width="24" height="25" viewBox="0 0 24 25" fill="none" xmlns="http://www.w3.org/2000/svg">
<path fill-rule="evenodd" clip-rule="evenodd" d="M3.99346 0.5C1.78793 0.5 0 2.29086 0 4.5V20.5C0 22.7091 1.78794 24.5 3.99346 24.5H19.5065C21.7121 24.5 23.5 22.7091 23.5 20.5V4.5C23.5 2.29086 21.7121 0.5 19.5065 0.5H3.99346ZM3.22522 5.8688C3.22522 7.07551 4.13862 7.95735 5.26532 7.95735C6.3922 7.95735 7.30559 7.07551 7.30559 5.8688C7.30559 4.66226 6.3922 3.77942 5.26532 3.77942C4.13862 3.77942 3.22522 4.66226 3.22522 5.8688ZM16.5419 21.1262H20.0806V13.9776C20.0806 10.4471 17.9468 9.24288 15.9722 9.24288C14.1464 9.24288 12.9061 10.4577 12.5637 11.1692V9.56775H9.1605V21.1262H12.6992V14.8596C12.6992 13.1887 13.7285 12.3761 14.7785 12.3761C15.7717 12.3761 16.5419 12.9506 16.5419 14.8132V21.1262ZM7.03458 9.55884V21.1173H3.49607V9.55884H7.03458Z" fill="#7D8F89"/>
</svg>
