<svg width="24" height="25" viewBox="0 0 24 25" fill="none" xmlns="http://www.w3.org/2000/svg">
<path d="M19.5843 8.56439C19.5959 8.73239 19.5959 8.90039 19.5959 9.06993C19.5959 14.2361 15.663 20.1943 8.47155 20.1943V20.1912C6.34716 20.1943 4.2669 19.5858 2.47852 18.4384C2.78742 18.4756 3.09787 18.4942 3.4091 18.495C5.16961 18.4965 6.87981 17.9058 8.26484 16.8181C6.59181 16.7863 5.12471 15.6955 4.61219 14.103C5.19826 14.216 5.80213 14.1928 6.37735 14.0356C4.55335 13.6671 3.2411 12.0645 3.2411 10.2034C3.2411 10.1863 3.2411 10.1701 3.2411 10.1538C3.78458 10.4565 4.3931 10.6245 5.01555 10.6431C3.29761 9.49497 2.76806 7.20955 3.80548 5.42271C5.79052 7.86529 8.71929 9.35019 11.8633 9.50735C11.5482 8.14942 11.9786 6.72645 12.9944 5.77187C14.5691 4.29161 17.0457 4.36748 18.526 5.94142C19.4016 5.76877 20.2408 5.44748 21.0088 4.99226C20.717 5.89729 20.1061 6.66606 19.2901 7.15458C20.0651 7.06322 20.8223 6.85574 21.5353 6.5391C21.0104 7.32568 20.3492 8.01084 19.5843 8.56439Z" fill="#7D8F89"/>
</svg>
